HIERARCHY
ROOT Hips
{
	OFFSET 0.000000 0.000000 0.000000
	CHANNELS 6 Xposition Yposition Zposition Xrotation Yrotation Zrotation
	JOINT LeftUpLeg_virtual
	{
		OFFSET 0.000000 0.000000 0.000000
		CHANNELS 3 Xrotation Yrotation Zrotation
		JOINT LeftUpLeg
		{
			OFFSET 10.205400 -3.823500 0.155100
			CHANNELS 3 Xrotation Yrotation Zrotation
			JOINT LeftLeg
			{
				OFFSET 0.708757 -12.982077 0.567790
				CHANNELS 3 Xrotation Yrotation Zrotation
				JOINT LeftFoot
				{
					OFFSET -0.708756 -10.717838 -2.184338
					CHANNELS 3 Xrotation Yrotation Zrotation
					JOINT LeftToeBase
					{
						OFFSET 0.108149 -7.191104 7.560241
						CHANNELS 3 Xrotation Yrotation Zrotation
						JOINT LeftToe_End
						{
							OFFSET 0.070230 0.081724 4.490308
							CHANNELS 3 Xrotation Yrotation Zrotation
							End Site
							{
								OFFSET 0 0 0
							}
						}
					}
				}
			}
		}
	}
	JOINT RightUpLeg_virtual
	{
		OFFSET 0.000000 0.000000 0.000000
		CHANNELS 3 Xrotation Yrotation Zrotation
		JOINT RightUpLeg
		{
			OFFSET -10.205400 -3.823500 0.005500
			CHANNELS 3 Xrotation Yrotation Zrotation
			JOINT RightLeg
			{
				OFFSET -0.708756 -12.982134 0.610632
				CHANNELS 3 Xrotation Yrotation Zrotation
				JOINT RightFoot
				{
					OFFSET 0.708754 -10.717769 -1.945823
					CHANNELS 3 Xrotation Yrotation Zrotation
					JOINT RightToeBase
					{
						OFFSET -0.108140 -7.191069 7.372968
						CHANNELS 3 Xrotation Yrotation Zrotation
						JOINT RightToe_End
						{
							OFFSET -0.070227 0.081735 4.479403
							CHANNELS 3 Xrotation Yrotation Zrotation
							End Site
							{
								OFFSET 0 0 0
							}
						}
					}
				}
			}
		}
	}
	JOINT Spine_virtual
	{
		OFFSET 0.000000 0.000000 0.000000
		CHANNELS 3 Xrotation Yrotation Zrotation
		JOINT Spine
		{
			OFFSET 0.000000 6.876099 0.125700
			CHANNELS 3 Xrotation Yrotation Zrotation
			JOINT Spine1
			{
				OFFSET 0.000000 5.730043 0.104720
				CHANNELS 3 Xrotation Yrotation Zrotation
				JOINT Spine1_split
				{
					OFFSET 0.000000 5.730043 0.104720
					CHANNELS 3 Xrotation Yrotation Zrotation
					JOINT Spine2
					{
						OFFSET 0.000000 5.730043 0.104720
						CHANNELS 3 Xrotation Yrotation Zrotation
						JOINT Neck_virtual
						{
							OFFSET 0.000000 0.000000 0.000000
							CHANNELS 3 Xrotation Yrotation Zrotation
							JOINT Neck
							{
								OFFSET 0.000000 10.314075 0.188496
								CHANNELS 3 Xrotation Yrotation Zrotation
								JOINT Head
								{
									OFFSET 0.000000 7.643700 -2.377400
									CHANNELS 3 Xrotation Yrotation Zrotation
									JOINT HeadTop_End
									{
										OFFSET 0.000000 43.788605 -13.619600
										CHANNELS 3 Xrotation Yrotation Zrotation
										End Site
										{
											OFFSET 0 0 0
										}
									}
								}
							}
						}
						JOINT LeftShoulder_virtual
						{
							OFFSET 0.000000 0.000000 0.000000
							CHANNELS 3 Xrotation Yrotation Zrotation
							JOINT LeftShoulder
							{
								OFFSET 2.196100 4.412489 0.087492
								CHANNELS 3 Xrotation Yrotation Zrotation
								JOINT LeftShoulder_split
								{
									OFFSET 2.196100 4.412489 0.087492
									CHANNELS 3 Xrotation Yrotation Zrotation
									JOINT LeftArm
									{
										OFFSET 8.771219 -2.981674 -0.026999
										CHANNELS 3 Xrotation Yrotation Zrotation
										JOINT LeftForeArm
										{
											OFFSET 8.512804 0.000000 -0.000000
											CHANNELS 3 Xrotation Yrotation Zrotation
											JOINT LeftHand
											{
												OFFSET 18.484802 0.000000 -0.000000
												CHANNELS 3 Xrotation Yrotation Zrotation
												End Site
												{
													OFFSET 0 0 0
												}
											}
										}
									}
								}
							}
						}
						JOINT RightShoulder_virtual
						{
							OFFSET 0.000000 0.000000 0.000000
							CHANNELS 3 Xrotation Yrotation Zrotation
							JOINT RightShoulder
							{
								OFFSET -2.196100 4.412496 0.070690
								CHANNELS 3 Xrotation Yrotation Zrotation
								JOINT RightShoulder_split
								{
									OFFSET -2.196100 4.412496 0.070690
									CHANNELS 3 Xrotation Yrotation Zrotation
									JOINT RightArm
									{
										OFFSET -8.771282 -2.981682 -0.094208
										CHANNELS 3 Xrotation Yrotation Zrotation
										JOINT RightForeArm
										{
											OFFSET -8.494598 0.000000 0.000000
											CHANNELS 3 Xrotation Yrotation Zrotation
											JOINT RightHand
											{
												OFFSET -18.483803 0.000000 0.000001
												CHANNELS 3 Xrotation Yrotation Zrotation
												End Site
												{
													OFFSET 0 0 0
												}
											}
										}
									}
								}
							}
						}
					}
				}
			}
		}
	}
}
MOTION
Frames: 11
Frame Time: 0.03333333
-0.953789 33.745506 -1.057440 0.000000 0.000000 0.000000 1.812256 6.405870 6.622831 -6.539225 5.489379 1.313028 17.741304 4.070039 -0.371831 -13.175167 2.573035 -8.484338 0.673212 0.316505 -1.466019 0.000000 0.000000 0.000000 2.181268 6.415837 6.694981 -6.120371 -10.935791 -15.616075 21.129728 1.335925 -1.263276 -19.402192 -8.876037 6.644666 -3.234224 -0.722060 -1.471549 0.000000 0.000000 0.000000 2.443552 6.086854 6.234815 8.122249 -1.199942 6.431846 2.324122 -0.152251 1.570087 0.818178 -0.517675 0.413420 0.000000 0.000000 0.000000 1.475026 -0.139081 1.266961 0.705374 0.541681 2.452436 -4.838992 -13.535580 -1.079119 0.000000 0.000000 0.000000 2.016659 -0.248226 1.366272 1.084998 -5.181011 -12.178206 0.281747 -0.048038 -1.405745 6.586187 -7.467896 -41.008688 0.092341 -68.798119 0.062712 0.000000 0.000000 0.000000 2.105667 -0.057753 1.268150 1.293312 16.327352 13.517997 -1.264247 1.151184 0.413784 -27.462772 14.080091 60.894654 -140.258112 88.295782 139.753484 0.000000 0.000000 0.000000 
-0.952421 33.745670 -1.013393 0.000000 0.000000 0.000000 1.809539 6.090104 6.653677 -6.328735 5.509857 1.380300 17.727495 4.209987 -0.323084 -13.331659 2.518462 -8.594414 0.712875 0.318769 -1.460835 0.000000 0.000000 0.000000 2.178452 6.096567 6.727024 -5.766734 -10.306158 -15.596483 20.998604 0.879155 -1.263515 -19.576973 -8.949302 6.681717 -3.183855 -0.739931 -1.497024 0.000000 0.000000 0.000000 2.429061 5.973589 6.256821 8.052358 -1.510418 6.472818 2.294050 -0.186460 1.565542 0.828881 -0.605137 0.374355 0.000000 0.000000 0.000000 1.479344 -0.171245 1.246491 0.701249 0.731768 2.299793 -5.548001 -13.258313 -1.311765 0.000000 0.000000 0.000000 1.985569 -0.275666 1.380804 1.024961 -5.307307 -12.320294 0.391927 0.140432 -1.482413 6.882864 -7.754806 -40.955102 0.126849 -68.973996 0.037799 0.000000 0.000000 0.000000 2.074123 -0.126354 1.269130 1.378751 16.812094 13.692405 -1.416389 1.319909 0.458155 -21.939968 16.664688 60.574332 -170.668000 84.032801 170.121953 0.000000 0.000000 0.000000 
-0.932840 33.748337 -0.980906 0.000000 0.000000 0.000000 1.765245 5.766687 6.665851 -6.108262 5.564786 1.437878 17.732327 4.400270 -0.306413 -13.496487 2.443129 -8.675977 0.779300 0.319581 -1.444663 0.000000 0.000000 0.000000 2.134603 5.766972 6.738018 -5.369868 -9.691486 -15.611931 20.835816 0.431362 -1.254253 -19.663664 -9.023634 6.749282 -3.106421 -0.760929 -1.518407 0.000000 0.000000 0.000000 2.405587 5.804132 6.256356 7.990708 -1.852872 6.485517 2.255055 -0.264848 1.556609 0.850622 -0.651106 0.331839 0.000000 0.000000 0.000000 1.471116 -0.239447 1.234578 0.714688 0.927787 2.116702 -6.248724 -12.897784 -1.608076 0.000000 0.000000 0.000000 1.951536 -0.336989 1.396408 0.966065 -5.459911 -12.393834 0.484086 0.362126 -1.495196 7.276504 -8.187775 -40.863277 0.165182 -69.064892 0.000114 0.000000 0.000000 0.000000 2.037029 -0.228871 1.276087 1.490551 17.368751 13.687066 -1.524040 1.416882 0.570387 -16.821521 20.274682 59.667843 -174.807395 80.674178 174.232675 0.000000 0.000000 0.000000 
-0.895112 33.755470 -0.955217 0.000000 0.000000 0.000000 1.670701 5.422175 6.657896 -5.857462 5.640732 1.481664 17.747917 4.648364 -0.315324 -13.683045 2.371174 -8.719905 0.872255 0.320981 -1.425227 0.000000 0.000000 0.000000 2.038292 5.415391 6.727778 -4.951077 -9.113459 -15.654949 20.664044 0.027074 -1.235898 -19.631309 -9.091717 6.880220 -3.061191 -0.784084 -1.537469 0.000000 0.000000 0.000000 2.354098 5.542500 6.231953 7.930852 -2.200523 6.445279 2.209473 -0.369473 1.537661 0.863823 -0.669208 0.309306 0.000000 0.000000 0.000000 1.454860 -0.327354 1.220699 0.745108 1.111889 1.903847 -6.882303 -12.493018 -1.942946 0.000000 0.000000 0.000000 1.918735 -0.418587 1.407366 0.910673 -5.609665 -12.374214 0.553099 0.624558 -1.464341 7.710786 -8.746207 -40.758153 0.242157 -69.116884 -0.012838 0.000000 0.000000 0.000000 1.995647 -0.349178 1.279612 1.619571 18.055132 13.533644 -1.656449 1.529342 0.635515 -12.118538 24.844615 57.898018 -176.129692 78.598238 175.542706 0.000000 0.000000 0.000000 
-0.842892 33.768147 -0.931448 0.000000 0.000000 0.000000 1.525204 5.044843 6.623419 -5.549761 5.725606 1.525678 17.759701 4.959782 -0.345050 -13.899604 2.323324 -8.715373 0.977304 0.323623 -1.405558 0.000000 0.000000 0.000000 1.889636 5.024685 6.690677 -4.524156 -8.573107 -15.698563 20.472872 -0.310122 -1.215724 -19.494026 -9.145721 7.062232 -3.055664 -0.810426 -1.550216 0.000000 0.000000 0.000000 2.252845 5.180463 6.182747 7.865063 -2.516138 6.335575 2.168464 -0.478323 1.500105 0.815748 -0.669636 0.314415 0.000000 0.000000 0.000000 1.432248 -0.408228 1.194024 0.805274 1.276561 1.667811 -7.410621 -12.126133 -2.285012 0.000000 0.000000 0.000000 1.894923 -0.499782 1.407498 0.856069 -5.746724 -12.248205 0.617620 0.880356 -1.394532 8.085329 -9.373006 -40.669532 0.345281 -69.184905 -0.000919 0.000000 0.000000 0.000000 1.934352 -0.464842 1.270820 1.755516 18.901613 13.245837 -1.682469 1.647562 0.565177 -7.771178 30.187746 55.007236 -176.259493 77.711987 175.661305 0.000000 0.000000 0.000000 
-0.779493 33.788456 -0.908056 0.000000 0.000000 0.000000 1.331952 4.615262 6.551365 -5.163683 5.819410 1.584611 17.757288 5.332258 -0.391622 -14.155916 2.308133 -8.655305 1.082659 0.328155 -1.385917 0.000000 0.000000 0.000000 1.691102 4.586596 6.617467 -4.088535 -8.062178 -15.712410 20.249709 -0.571873 -1.203322 -19.296065 -9.180110 7.249540 -3.074071 -0.840592 -1.549499 0.000000 0.000000 0.000000 2.095453 4.735940 6.097969 7.786095 -2.761987 6.149782 2.132761 -0.565565 1.436394 0.715841 -0.751031 0.353948 0.000000 0.000000 0.000000 1.405097 -0.458894 1.145036 0.894421 1.406631 1.427384 -7.826978 -11.875889 -2.612151 0.000000 0.000000 0.000000 1.872192 -0.558277 1.390434 0.799663 -5.877336 -12.026183 0.704034 1.142900 -1.307606 8.288296 -10.031132 -40.641149 0.465372 -69.311155 0.038487 0.000000 0.000000 0.000000 1.847752 -0.560673 1.238800 1.895777 19.917492 12.867354 -1.660577 1.786736 0.444445 -3.581773 35.944424 50.849707 -175.647549 77.833953 175.032873 0.000000 0.000000 0.000000 
-0.707367 33.816177 -0.885813 0.000000 0.000000 0.000000 1.104742 4.115608 6.427703 -4.700175 5.929121 1.684895 17.740230 5.754684 -0.450035 -14.462345 2.322247 -8.546665 1.199198 0.332356 -1.368043 0.000000 0.000000 0.000000 1.471467 4.099506 6.494872 -3.658125 -7.559529 -15.676232 19.984710 -0.762137 -1.203989 -19.053832 -9.192442 7.401845 -3.103764 -0.872603 -1.534472 0.000000 0.000000 0.000000 1.888493 4.228253 5.966427 7.692537 -2.912786 5.890110 2.106997 -0.619209 1.344980 0.645933 -0.939857 0.390387 0.000000 0.000000 0.000000 1.381088 -0.469752 1.071830 0.972622 1.502034 1.204879 -8.153749 -11.823092 -2.901642 0.000000 0.000000 0.000000 1.838482 -0.582837 1.349359 0.737629 -6.017371 -11.750216 0.808039 1.343507 -1.181461 8.253657 -10.680631 -40.700585 0.554913 -69.495078 0.072919 0.000000 0.000000 0.000000 1.733510 -0.626758 1.182955 2.033474 21.087056 12.479920 -1.640417 1.901416 0.343439 0.680170 41.721422 45.493947 -174.426939 78.717302 173.800816 0.000000 0.000000 0.000000 
-0.628501 33.849907 -0.867798 0.000000 0.000000 0.000000 0.867347 3.544496 6.234668 -4.179918 6.063595 1.853084 17.711300 6.203050 -0.520257 -14.827764 2.357787 -8.408992 1.328304 0.336269 -1.349462 0.000000 0.000000 0.000000 1.248579 3.560605 6.306950 -3.256917 -7.055234 -15.574824 19.673533 -0.875477 -1.216237 -18.736519 -9.180618 7.520481 -3.145239 -0.905779 -1.511939 0.000000 0.000000 0.000000 1.653782 3.677546 5.773552 7.592939 -2.955469 5.577382 2.093791 -0.637059 1.232191 0.659397 -1.170696 0.436095 0.000000 0.000000 0.000000 1.357280 -0.442454 0.983958 1.031422 1.547958 1.017866 -8.421686 -12.007299 -3.147613 0.000000 0.000000 0.000000 1.791822 -0.570172 1.286928 0.670313 -6.188162 -11.458878 0.918917 1.500039 -1.046379 7.992085 -11.316367 -40.841704 0.575479 -69.680470 0.074735 0.000000 0.000000 0.000000 1.597517 -0.659980 1.111001 2.165972 22.381765 12.132041 -1.598716 1.967046 0.326216 5.203279 47.079452 39.099322 -172.499187 80.213892 171.880686 0.000000 0.000000 0.000000 
-0.543814 33.885494 -0.858757 0.000000 0.000000 0.000000 0.640427 2.898580 5.960317 -3.648800 6.229146 2.111104 17.684642 6.661221 -0.598400 -15.257080 2.411297 -8.266160 1.469013 0.340278 -1.330601 0.000000 0.000000 0.000000 1.045756 2.970038 6.040889 -2.916597 -6.539920 -15.394944 19.328756 -0.887792 -1.236320 -18.320903 -9.135826 7.646934 -3.226710 -0.936035 -1.495774 0.000000 0.000000 0.000000 1.420152 3.102647 5.502232 7.495273 -2.892835 5.237217 2.085919 -0.624073 1.108471 0.710381 -1.401466 0.471057 0.000000 0.000000 0.000000 1.334778 -0.391347 0.893161 1.044565 1.538336 0.890079 -8.646168 -12.426656 -3.359391 0.000000 0.000000 0.000000 1.724193 -0.526742 1.212515 0.598139 -6.395293 -11.183149 1.085082 1.579151 -0.899336 7.587573 -11.941215 -41.028065 0.533602 -69.804567 0.052382 0.000000 0.000000 0.000000 1.452445 -0.666790 1.034468 2.286450 23.741222 11.852808 -1.534607 1.994071 0.408772 9.995489 51.735087 31.983406 -169.513657 82.264110 168.927531 0.000000 0.000000 0.000000 
-0.452246 33.918488 -0.858923 0.000000 0.000000 0.000000 0.446327 2.185778 5.597216 -3.152298 6.422694 2.468384 17.690378 7.112734 -0.674426 -15.736011 2.488162 -8.135828 1.609980 0.345331 -1.314886 0.000000 0.000000 0.000000 0.876583 2.330669 5.685644 -2.639026 -6.020643 -15.118593 18.949147 -0.799087 -1.261397 -17.820182 -9.060132 7.794403 -3.351570 -0.962350 -1.492768 0.000000 0.000000 0.000000 1.217191 2.494064 5.145393 7.405802 -2.744227 4.902977 2.081136 -0.592738 0.982447 0.769563 -1.548867 0.525780 0.000000 0.000000 0.000000 1.320892 -0.331269 0.811068 1.013433 1.471799 0.832414 -8.828292 -13.052258 -3.554853 0.000000 0.000000 0.000000 1.643252 -0.464570 1.134940 0.523747 -6.641255 -10.938761 1.285509 1.596448 -0.754608 7.171305 -12.566493 -41.191501 0.438346 -69.821158 0.008575 0.000000 0.000000 0.000000 1.305004 -0.651989 0.962808 2.392341 25.091110 11.608805 -1.359295 2.096902 0.540171 14.893630 55.615317 24.475609 -163.468994 84.788725 162.939982 0.000000 0.000000 0.000000 
-0.354330 33.943985 -0.867167 0.000000 0.000000 0.000000 0.301161 1.418371 5.147167 -2.726785 6.625748 2.916188 17.761386 7.548013 -0.735148 -16.255937 2.607301 -8.022031 1.748986 0.352353 -1.308313 0.000000 0.000000 0.000000 0.745905 1.644353 5.242448 -2.422340 -5.513880 -14.728307 18.553755 -0.630128 -1.292548 -17.299846 -8.967109 7.928354 -3.469267 -0.984446 -1.502821 0.000000 0.000000 0.000000 1.065475 1.866357 4.706180 7.323465 -2.532090 4.604226 2.071563 -0.553881 0.856648 0.795652 -1.594596 0.583353 0.000000 0.000000 0.000000 1.319087 -0.274280 0.736121 0.962979 1.352321 0.843412 -8.949422 -13.830718 -3.747023 0.000000 0.000000 0.000000 1.561643 -0.395286 1.061590 0.453394 -6.906978 -10.714625 1.543351 1.606510 -0.675822 6.855746 -13.189744 -41.269874 0.336244 -69.722462 -0.017866 0.000000 0.000000 0.000000 1.161037 -0.631783 0.892839 2.503649 26.316572 11.311156 -1.172288 2.209015 0.730963 19.775436 58.827279 16.781729 -143.373061 87.499702 142.926052 0.000000 0.000000 0.000000 
